<svg width="52" height="56" viewBox="0 0 52 56" fill="none" xmlns="http://www.w3.org/2000/svg">
<path d="M51.8726 9.20551C51.5014 7.16993 50.5714 5.27719 49.1829 3.73072C49.1802 3.72773 49.1776 3.72461 49.1749 3.72162C48.4637 2.91856 47.2851 1.81447 45.7097 1.11483L45.6738 1.09893C44.1533 0.369661 42.5216 0 40.8243 0C38.3142 0 35.9399 0.810265 33.9581 2.34341C33.9562 2.3449 33.9473 2.35197 33.9448 2.35374C32.2411 3.68411 31.1168 5.58515 30.9776 5.82733C30.9713 5.83793 30.9652 5.84866 30.9594 5.8594C30.0655 7.49814 29.5931 9.35569 29.5931 11.2313C29.5931 11.6208 29.6135 12.0151 29.654 12.4029C29.6917 12.7654 29.9086 13.0848 30.2313 13.2537C30.4357 13.3607 30.6494 13.4497 30.8689 13.5201C31.7438 16.1982 33.6548 18.3401 36.0842 19.5446C35.0428 20.0765 34.1075 20.7799 33.2984 21.64C32.8871 22.0773 32.9081 22.7654 33.3456 23.1768C33.7829 23.5881 34.471 23.567 34.8824 23.1296C35.2712 22.7162 35.6968 22.349 36.1557 22.0304C36.8139 23.8952 38.5103 25.2613 40.4397 25.2613H40.602C42.5347 25.2613 44.2294 23.7972 44.8487 21.8161C47.1446 23.2554 48.6134 25.8196 48.6134 28.5626V39.8561L38.7245 46.2729C38.2207 46.5997 38.0773 47.273 38.4043 47.7767C38.6125 48.0975 38.9613 48.2722 39.3173 48.2722C39.5202 48.2722 39.7253 48.2155 39.908 48.0969L50.2924 41.3587C50.6013 41.1582 50.7879 40.8149 50.7879 40.4466V28.5626C50.7879 24.7123 48.6384 21.2611 45.2414 19.539C48.4584 17.9335 50.7333 14.6929 50.9562 10.9187C51.263 10.6405 51.5298 10.3137 51.7432 9.94606C51.8733 9.72263 51.9191 9.45993 51.8726 9.20551ZM40.6021 23.087H40.4398C39.1387 23.087 38.0394 21.8258 38.0394 20.3329C38.0394 20.3142 38.0389 20.2958 38.038 20.2773C38.881 20.4989 39.7628 20.6162 40.6669 20.6162C41.4397 20.6162 42.1938 20.5301 42.9192 20.3668C42.8341 21.8368 41.7879 23.087 40.6021 23.087ZM40.6668 18.4417C37.3884 18.4417 34.4815 16.4888 33.2081 13.5614C34.7177 13.1344 35.8725 11.8536 36.116 10.2762C36.7647 10.3595 37.4221 10.4015 38.0816 10.4015C40.2931 10.4015 42.4235 9.93791 44.3315 9.05018C44.8232 10.7388 46.385 11.9763 48.2303 11.9763C48.3649 11.9763 48.4986 11.9695 48.6311 11.9562C47.8645 15.6501 44.5748 18.4417 40.6668 18.4417ZM48.2303 9.802C47.1908 9.802 46.345 8.95654 46.345 7.91714V7.31209C46.345 6.91647 46.1302 6.55211 45.7839 6.36062C45.4375 6.16899 45.0145 6.18082 44.6797 6.39133C42.7665 7.59232 40.485 8.22714 38.0815 8.22714C37.1416 8.22714 36.2079 8.12806 35.3064 7.93263C34.9853 7.86291 34.6496 7.94242 34.3936 8.14885C34.1377 8.35529 33.9888 8.66638 33.9888 8.99513V9.65468C33.9888 10.6939 33.1432 11.5395 32.1038 11.5395C32.0326 11.5395 31.9622 11.5356 31.8926 11.5279C31.8765 11.5254 31.8603 11.5234 31.8441 11.5217C31.8198 11.5185 31.7957 11.5145 31.7717 11.5103C31.7688 11.4171 31.7673 11.3241 31.7673 11.2314C31.7673 9.7229 32.1458 8.22958 32.8621 6.91198C32.8649 6.90668 32.8679 6.90152 32.8702 6.89758C32.8795 6.88086 33.8615 5.17838 35.2813 4.06899C35.2842 4.06668 35.2878 4.06396 35.2885 4.06342C36.8859 2.82764 38.8002 2.17448 40.8243 2.17448C42.1936 2.17448 43.5088 2.47224 44.7335 3.05949C44.7547 3.06968 44.7861 3.08395 44.8271 3.10203C46.0363 3.63912 46.9646 4.50837 47.5341 5.14862C47.5403 5.15596 47.5467 5.16316 47.5532 5.1705C48.5793 6.30897 49.2964 7.68053 49.6426 9.15985C49.287 9.56267 48.7727 9.802 48.2303 9.802ZM31.4068 37.6196C33.8705 36.1699 35.5277 33.4899 35.5277 30.4306C35.5277 29.0539 35.192 27.7538 34.5985 26.6083C34.5772 26.5602 34.5529 26.5144 34.5257 26.4709C33.1142 23.8677 30.3567 22.096 27.1931 22.096C24.0288 22.096 21.2707 23.8683 19.8596 26.4726C19.8333 26.515 19.8095 26.5597 19.7887 26.6065C19.1944 27.7524 18.8586 29.0531 18.8586 30.4306C18.8586 33.4894 20.515 36.1688 22.978 37.6186C19.9292 39.1947 17.998 42.3232 17.998 45.7855V49.751C17.998 50.1227 18.1879 50.4685 18.5014 50.6682L26.6093 55.8298C26.7875 55.9432 26.9903 55.9999 27.1932 55.9999C27.3949 55.9999 27.5966 55.9439 27.7739 55.8317L35.901 50.6971C36.218 50.4969 36.4093 50.1477 36.4075 49.7728L36.3884 45.7804C36.3718 42.3099 34.4426 39.1917 31.4068 37.6196ZM27.1931 24.2704C29.0855 24.2704 30.7811 25.128 31.9121 26.4751C30.447 26.8949 28.8404 27.1138 27.1933 27.1138C25.5458 27.1138 23.9389 26.8949 22.474 26.4751C23.605 25.128 25.3007 24.2704 27.1931 24.2704ZM21.0329 30.4306C21.0329 29.7243 21.1524 29.0452 21.3722 28.4128C23.1663 28.9874 25.1572 29.2883 27.1933 29.2883C29.2289 29.2883 31.2195 28.9874 33.0139 28.4128C33.2338 29.0452 33.3532 29.7243 33.3532 30.4306C33.3532 33.8273 30.5899 36.5908 27.1931 36.5908C23.7964 36.5908 21.0329 33.8273 21.0329 30.4306ZM29.1229 38.5398C28.987 39.5683 28.0849 40.2636 27.2686 40.2636H27.1362C26.2718 40.2636 25.3117 39.5324 25.1874 38.5213C25.8299 38.6806 26.5018 38.7652 27.1929 38.7652C27.857 38.7652 28.5033 38.6871 29.1229 38.5398ZM27.1954 53.6253L20.1723 49.1543V45.7857C20.1723 43.395 21.3803 41.2121 23.3355 39.9256C24.0149 41.4758 25.6164 42.4381 27.1362 42.4381H27.2686C28.9094 42.4381 30.3598 41.3703 30.9863 39.8867C32.9698 41.1656 34.2022 43.3656 34.2138 45.7908L34.2301 49.1808L27.1954 53.6253ZM19.3859 24.4414C19.7028 23.9313 19.5462 23.2609 19.0363 22.944C18.7053 22.7382 18.362 22.5516 18.0097 22.3856C19.3532 21.6987 20.5417 20.7149 21.4852 19.4843C21.8737 19.6191 22.2908 19.6925 22.7246 19.6925C24.8139 19.6925 26.5137 17.9927 26.5137 15.9034V13.2015C26.5137 9.76694 25.2016 6.51406 22.8194 4.04235C20.4439 1.57786 17.2547 0.146234 13.8394 0.0111442C13.8392 0.0111442 13.8388 0.0111442 13.8385 0.0111442C13.5417 -0.000271809 13.2654 -0.00298991 12.9937 0.00366943C9.59364 0.085756 6.38642 1.46193 3.96283 3.87859C1.47808 6.35613 0.109652 9.66718 0.109652 13.2017V15.9036C0.109652 17.9928 1.80941 19.6926 3.89882 19.6926C4.33263 19.6926 4.74958 19.6194 5.138 19.4845C6.17726 20.8401 7.51402 21.8962 9.02787 22.5858C5.67305 24.3501 3.59806 27.7654 3.59806 31.5473V40.4469C3.59806 40.8152 3.78452 41.1585 4.09357 41.359L13.9569 47.7589C14.1397 47.8775 14.3447 47.9342 14.5476 47.9342C14.9036 47.9342 15.2526 47.7594 15.4607 47.4387C15.7875 46.9349 15.6441 46.2616 15.1405 45.9349L5.77254 39.8564V31.5473C5.77254 29.0317 6.9439 26.722 8.90623 25.2316C9.57923 27.1845 11.3074 28.6519 13.2182 28.6519H13.3805C15.4558 28.6519 17.1122 26.7734 17.6955 24.6747C17.7603 24.7125 17.8246 24.7513 17.8883 24.7908C18.3985 25.108 19.0689 24.9513 19.3859 24.4414ZM6.58783 9.25009C5.88493 10.4439 5.51337 11.8103 5.51337 13.2017V15.9036C5.51337 16.4187 5.27091 16.8782 4.89405 17.174C4.8617 17.1951 4.83085 17.2176 4.8015 17.2416C4.54369 17.4162 4.23287 17.5181 3.89868 17.5181C3.00837 17.5181 2.28413 16.7939 2.28413 15.9036V13.2015C2.28413 7.16558 7.01145 2.32329 13.0458 2.17733C13.2714 2.17176 13.5031 2.17421 13.7542 2.18386C19.6896 2.41911 24.3391 7.25854 24.3391 13.2015V15.9034C24.3391 16.7938 23.6147 17.518 22.7244 17.518C22.3902 17.518 22.0792 17.4159 21.8213 17.2413C21.7921 17.2175 21.7613 17.1951 21.7291 17.174C21.3523 16.8782 21.1097 16.4185 21.1097 15.9034V13.2015C21.1097 9.36384 18.2508 6.04749 14.4596 5.48743C14.1615 5.44312 13.8586 5.52494 13.6231 5.71276C13.3876 5.90058 13.2404 6.17756 13.2167 6.4779C13.1571 7.23788 13.0193 7.98726 12.806 8.71449H7.52462C7.13961 8.71449 6.78313 8.91821 6.58783 9.25009ZM13.3805 26.4774H13.2182C11.9891 26.4774 10.7827 24.9853 10.7827 23.4649C10.7827 23.3711 10.7706 23.2789 10.7475 23.1904C11.5732 23.4004 12.4331 23.5098 13.3117 23.5098C14.1435 23.5098 14.9586 23.4116 15.7437 23.2232C15.6698 24.8041 14.4733 26.4774 13.3805 26.4774ZM13.3117 21.3353C10.7776 21.3353 8.43886 20.1816 6.90232 18.2108C7.39456 17.5714 7.68771 16.7709 7.68771 15.9034V13.2015C7.68771 12.4006 7.85813 11.6117 8.18403 10.889H13.5907C14.0459 10.889 14.4528 10.6056 14.6106 10.1786C14.8824 9.44335 15.0875 8.68486 15.2239 7.91238C17.4007 8.70471 18.9353 10.813 18.9353 13.2015V15.9034C18.9353 16.7709 19.2285 17.5714 19.7209 18.2108C18.1845 20.1817 15.8458 21.3353 13.3117 21.3353Z" fill="#4A5E5E"/>
</svg>
